PathFileType	4	(X/Y/Z)	C:\Users\Basilio\Documents\Thesis Gigler\squatting_fais\c3dfiles\076\SLS_back_pre1\markers_experimental.trc
DataRate	CameraRate	NumFrames	NumMarkers	Units	OrigDataRate	OrigDataStartFrame	OrigNumFrames
200.000000	200.000000	4	61	mm	200.000000	0	2311
Frame#	Time	FHD			LBHD			RBHD			C7			T10			CLAV			LSHO			LUUPA			LMUPA			LDUPA			LLEP			LMEP			LRAD			LUL			LRFIN			RSHO			RUPA1			RMUPA			RDUPA			RLEP			RMEP			RRAD			RUL			RUFIN			LASI			RASI			USACR			LSACR			RSACR			LTHI1			LTHI2			LTHI3			LTHI4			LLFC			LMFC			LTIB1			LTIB2			LTIB3			LTIB4			LLMAL			LMMAL			LHEE			LMT1			LMT2			LMT5			RTHI			RTHI2			RTHI3			RTHI4			RLFC			RMFC			RTIB1			RTIB2			RTIB3			RTIB4			RLMAL			RMMAL			RHEE			RMT1			RMT2			RMT5			
		X1	Y1	Z1	X2	Y2	Z2	X3	Y3	Z3	X4	Y4	Z4	X5	Y5	Z5	X6	Y6	Z6	X7	Y7	Z7	X8	Y8	Z8	X9	Y9	Z9	X10	Y10	Z10	X11	Y11	Z11	X12	Y12	Z12	X13	Y13	Z13	X14	Y14	Z14	X15	Y15	Z15	X16	Y16	Z16	X17	Y17	Z17	X18	Y18	Z18	X19	Y19	Z19	X20	Y20	Z20	X21	Y21	Z21	X22	Y22	Z22	X23	Y23	Z23	X24	Y24	Z24	X25	Y25	Z25	X26	Y26	Z26	X27	Y27	Z27	X28	Y28	Z28	X29	Y29	Z29	X30	Y30	Z30	X31	Y31	Z31	X32	Y32	Z32	X33	Y33	Z33	X34	Y34	Z34	X35	Y35	Z35	X36	Y36	Z36	X37	Y37	Z37	X38	Y38	Z38	X39	Y39	Z39	X40	Y40	Z40	X41	Y41	Z41	X42	Y42	Z42	X43	Y43	Z43	X44	Y44	Z44	X45	Y45	Z45	X46	Y46	Z46	X47	Y47	Z47	X48	Y48	Z48	X49	Y49	Z49	X50	Y50	Z50	X51	Y51	Z51	X52	Y52	Z52	X53	Y53	Z53	X54	Y54	Z54	X55	Y55	Z55	X56	Y56	Z56	X57	Y57	Z57	X58	Y58	Z58	X59	Y59	Z59	X60	Y60	Z60	X61	Y61	Z61	

1	0	-177.0797119140625	1634.660766601563	-1003.875915527344	-317.2200622558594	1562.717041015625	-1096.791015625	-299.2992858886719	1565.49658203125	-945.7403564453127	-367.0713195800782	1446.3916015625	-1025.7744140625	-401.2369384765626	1126.564208984375	-1025.425659179688	-236.4218292236329	1365.051147460938	-1023.335998535156	-305.6710510253907	1395.24609375	-1194.705078125	-322.0753784179688	1247.486938476563	-1327.048950195313	-306.4005432128907	1202.737426757813	-1311.114501953125	-330.9207458496094	1190.760498046875	-1366.115112304688	-342.8043212890626	1141.4267578125	-1394.2392578125	-423.809783935547	1129.611206054688	-1357.846923828125	-283.8576049804688	1014.565246582031	-1186.323852539063	-332.0692749023438	993.044128417969	-1204.345581054688	-289.5485229492188	956.9249267578127	-1237.16650390625	-317.1978149414063	1393.355346679688	-862.934265136719	-377.7022705078126	1268.394775390625	-723.4600830078126	-344.9323425292969	1230.790649414063	-716.8342895507814	-389.506805419922	1213.560302734375	-679.6114501953126	-382.9630737304688	1145.1162109375	-652.3923339843751	-450.5401306152345	1124.465454101563	-708.8464965820314	-330.9194030761719	1000.777587890625	-837.6943359375002	-280.1705322265626	1026.370727539063	-847.772399902344	-284.3357849121094	974.1939697265627	-796.7612915039065	-237.7155761718751	942.684509277344	-1127.086303710938	-237.1533203125001	941.883239746094	-911.6004028320315	-404.401336669922	1018.435852050781	-1018.467651367188	-412.1831054687501	989.3953247070315	-1046.361328125	-410.4493713378907	988.3655395507815	-989.9246215820315	-328.0409240722657	789.1335449218752	-1181.541748046875	-309.7628173828126	708.3974609375001	-1169.952026367188	-259.8973083496094	707.5550537109376	-1161.422119140625	-343.6528625488282	661.3239746093751	-1152.474731445313	-359.4986877441407	501.3159179687501	-1115.15234375	-323.4191284179688	502.8304748535157	-1000.628967285156	-325.0759887695313	363.6542968750001	-1035.3330078125	-349.2033081054688	304.8680114746094	-1096.534301757813	-318.8920593261719	311.1222839355469	-1060.783813476563	-330.6471557617188	237.1927185058594	-1021.148681640625	-387.0315551757814	107.6979675292969	-1057.694091796875	-356.7915344238282	125.5662460327149	-981.4968261718752	-443.055145263672	97.66968536376956	-1008.438049316406	-241.6873016357422	53.55939102172853	-994.1805419921877	-236.4935302734376	49.34746551513673	-1032.837280273438	-260.0871276855469	43.06815338134766	-1082.467163085938	-274.4135742187501	701.9714355468751	-820.3164062500002	-224.2420959472657	657.4991455078126	-811.6346435546877	-191.5440979003907	665.5175781250001	-820.4622802734377	-231.8609466552735	574.3870849609376	-818.9323730468752	-222.5550537109376	520.6737670898439	-819.9082031250002	-192.1742095947266	504.0762634277345	-930.4954833984377	-213.1397705078126	382.0180969238282	-824.7042236328127	-305.5995178222657	327.5428771972657	-803.4468994140627	-261.8545837402344	311.5455627441407	-809.7058715820315	-260.0585021972657	261.2059020996094	-840.174987792969	-361.7522583007813	144.7952270507813	-807.1011962890627	-330.0390625000001	149.7255859375	-888.0578613281252	-419.678192138672	131.7041168212891	-853.310485839844	-226.1252136230469	65.7349319458008	-866.4944458007815	-217.8911285400391	71.61266326904298	-821.894470214844	-251.3124389648438	60.60681533813478	-769.4984130859377	
2	0.005	-177.1808776855469	1634.721069335938	-1003.950378417969	-317.3081054687501	1562.873046875	-1097.125122070313	-299.4831848144532	1565.528930664063	-945.971374511719	-367.3053894042969	1446.390869140625	-1026.044555664063	-401.2561950683595	1126.543701171875	-1025.557373046875	-236.6163330078126	1365.142578125	-1023.615966796875	-305.9216003417969	1395.327880859375	-1194.975219726563	-322.1307373046876	1247.531005859375	-1327.32763671875	-306.4718322753907	1202.775512695313	-1311.275024414063	-330.9343566894532	1190.788818359375	-1366.392211914063	-342.8414306640626	1141.443725585938	-1394.481323242188	-423.8218994140626	1129.644287109375	-1358.05615234375	-284.0656738281251	1014.61572265625	-1186.451416015625	-332.2384033203126	993.0747680664065	-1204.636596679688	-289.6921997070313	956.950622558594	-1237.336181640625	-317.3913269042969	1393.378662109375	-863.2048950195315	-377.8609008789063	1268.382568359375	-723.7105712890626	-345.1233825683594	1230.803588867188	-717.1096801757814	-389.714569091797	1213.529907226563	-679.9332885742189	-383.1180725097657	1145.134521484375	-652.6903686523439	-450.6367187500001	1124.398681640625	-709.3155517578126	-330.7970581054688	1000.772277832031	-837.9226074218752	-279.9983520507813	1026.512084960938	-847.9214477539065	-284.1417236328126	974.274353027344	-796.8977661132815	-237.8968505859376	942.7751464843752	-1127.376220703125	-236.9882812500001	941.9854125976565	-911.867614746094	-404.2998657226564	1018.439514160156	-1018.544860839844	-412.2203369140626	989.442321777344	-1046.406982421875	-410.3529052734376	988.4039306640627	-989.9189453125002	-328.3105468750001	789.1608886718752	-1181.786499023438	-309.9591979980469	708.4793701171876	-1170.091430664063	-260.0663146972657	707.6041870117189	-1161.648071289063	-343.7766418457032	661.3863525390626	-1152.601196289063	-359.5296325683594	501.342498779297	-1115.2666015625	-323.1827392578126	502.8687133789064	-1000.818359375	-324.9865112304688	363.6881408691407	-1035.536499023438	-349.3186950683594	304.8389587402344	-1096.721069335938	-318.9315185546876	311.1501770019532	-1060.968139648438	-330.6248168945313	237.1813201904297	-1021.308349609375	-387.094207763672	107.6420822143555	-1057.8017578125	-356.6081237792969	125.6218185424805	-981.6383056640627	-443.0367431640626	97.65429687500003	-1008.491821289063	-241.7232360839844	53.6101531982422	-994.2210083007815	-236.4615020751954	49.34708404541017	-1032.813842773438	-260.1536865234376	43.05304336547852	-1082.507446289063	-274.1856994628907	702.0380859375001	-820.4170532226565	-224.0514831542969	657.5147705078126	-811.8276367187502	-191.2947692871094	665.5075073242189	-820.753112792969	-231.7163848876954	574.4172973632814	-819.0307617187502	-222.5561065673829	520.7777709960939	-820.0067138671877	-192.3873291015626	504.0213012695314	-930.6116943359377	-213.4568634033204	382.0535888671876	-824.7151489257815	-306.1167602539063	327.8925781250001	-803.2966308593752	-262.2492065429688	311.6776123046876	-809.592224121094	-260.7333068847657	261.4063720703126	-840.0974121093752	-362.7063598632813	145.2609405517578	-806.7437744140627	-331.0288696289063	150.0848388671875	-887.9138183593752	-420.7702026367189	132.2402648925782	-852.899353027344	-227.355453491211	66.01978302001955	-866.3880615234377	-219.2780151367188	72.08434295654298	-821.866394042969	-252.5098266601563	61.05967712402345	-769.4746093750002	
3	0.01	-177.3143157958985	1634.791259765625	-1004.122619628906	-317.2919311523438	1562.9091796875	-1097.373168945313	-299.7372741699219	1565.642456054688	-946.2523193359377	-367.5269470214844	1446.432373046875	-1026.284301757813	-401.2336425781251	1126.554443359375	-1025.668090820313	-236.7747039794922	1365.24609375	-1023.900024414063	-306.1380615234376	1395.36181640625	-1195.19140625	-322.2682495117188	1247.547241210938	-1327.580444335938	-306.5268859863282	1202.780151367188	-1311.496337890625	-330.9614562988282	1190.798095703125	-1366.56689453125	-342.8987121582032	1141.512084960938	-1394.718994140625	-423.9592285156251	1129.72265625	-1358.513427734375	-284.3100280761719	1014.584106445313	-1186.66943359375	-332.3830261230469	993.0917968750002	-1204.90966796875	-289.8184204101563	957.0120849609377	-1237.541259765625	-317.5485839843751	1393.413330078125	-863.4578857421877	-378.0564880371094	1268.361083984375	-723.9867553710939	-345.2915649414063	1230.799438476563	-717.3732299804689	-389.8702697753907	1213.529663085938	-680.2037353515626	-383.2438659667969	1145.0693359375	-652.9865722656251	-450.6705627441407	1124.294311523438	-709.5334472656251	-330.5576477050782	1000.838256835938	-838.1362304687502	-279.8264465332032	1026.592407226563	-848.0697021484377	-283.9857788085938	974.3792724609377	-797.1099853515627	-238.0133819580079	942.7749633789065	-1127.729614257813	-236.7632446289063	942.0642700195315	-912.2152099609377	-404.3096618652345	1018.459777832031	-1018.619873046875	-412.2490234375001	989.453796386719	-1046.47216796875	-410.2583618164064	988.4236450195315	-990.0010375976565	-328.6072692871094	789.276794433594	-1181.889282226563	-310.1772460937501	708.4805908203126	-1170.27685546875	-260.2129516601563	707.6356201171876	-1162	-343.9289550781251	661.4325561523439	-1152.684204101563	-359.6486816406251	501.3950805664064	-1115.361572265625	-323.0072326660157	502.855682373047	-1001.022094726563	-324.9235534667969	363.6622924804688	-1035.715576171875	-349.3565368652344	304.8823852539063	-1096.841552734375	-318.9250793457032	311.1430358886719	-1061.1953125	-330.5273742675782	237.2232971191407	-1021.484252929688	-387.083953857422	107.6625213623047	-1057.848510742188	-356.5746154785157	125.6738052368164	-981.728210449219	-443.0312805175782	97.64891052246097	-1008.507629394531	-241.7232360839844	53.6101531982422	-994.2210083007815	-236.4668426513672	49.32601547241212	-1032.825439453125	-260.1221618652344	43.04021835327149	-1082.505249023438	-273.9196472167969	702.1422119140626	-820.5317382812502	-223.8318939208985	657.5829467773439	-812.039001464844	-191.0941467285157	665.5209960937501	-821.0671997070315	-231.6414642333985	574.4255371093751	-819.1375122070315	-222.5391235351563	520.8322753906251	-820.068298339844	-191.6556854248047	503.7982177734376	-930.3098754882815	-213.7422180175782	382.0984802246094	-824.6883544921877	-306.6378784179688	328.1779174804688	-803.1887207031252	-262.7283325195313	311.8094787597657	-809.444030761719	-261.4624328613282	261.5361633300782	-840.0025634765627	-363.7004699707032	145.7157440185547	-806.4680175781252	-332.0760192871094	150.3885498046875	-887.5776977539065	-421.8330993652345	132.6939086914063	-852.431091308594	-228.5399322509766	66.26158142089845	-866.2514648437502	-220.333724975586	72.36581420898439	-821.822204589844	-253.3736877441407	61.41318893432619	-769.3569946289065	
4	0.015	-177.4252471923828	1634.822143554688	-1004.235229492188	-317.3167114257813	1562.961547851563	-1097.70556640625	-299.9031066894532	1565.704345703125	-946.5175781250002	-367.7177429199219	1446.440551757813	-1026.4814453125	-401.2583312988282	1126.542602539063	-1025.717529296875	-236.9115905761719	1365.343505859375	-1024.088623046875	-307.2258300781251	1395.650268554688	-1195.79052734375	-322.3774719238282	1247.618774414063	-1327.902221679688	-306.6423950195313	1202.828002929688	-1311.7265625	-331.0476074218751	1190.848022460938	-1366.741333007813	-342.9401855468751	1141.509643554688	-1394.995361328125	-423.9882202148439	1129.745239257813	-1358.808715820313	-284.3763122558594	1014.614990234375	-1186.926513671875	-332.6604919433594	993.1699829101565	-1205.171630859375	-289.9458618164063	956.970642089844	-1237.711303710938	-317.7261962890626	1393.42822265625	-863.6446533203127	-378.2126464843751	1268.354248046875	-724.3269042968751	-345.4082946777344	1230.815185546875	-717.6549682617189	-390.041961669922	1213.5126953125	-680.5233764648439	-383.3401184082032	1145.10595703125	-653.2597656250001	-450.6968688964845	1124.19384765625	-709.8432006835939	-330.4385986328126	1000.871154785156	-838.3630371093752	-279.6623229980469	1026.652221679688	-848.272399902344	-283.7882690429688	974.5046997070315	-797.273132324219	-238.1416931152344	942.8095703125002	-1127.986328125	-236.5646362304688	942.1307373046877	-912.463562011719	-404.3050842285157	1018.494934082031	-1018.652526855469	-412.2779235839845	989.4749145507815	-1046.519287109375	-410.2371826171876	988.4402465820315	-990.0650024414065	-328.9012145996094	789.2615966796877	-1182.168212890625	-310.4048156738282	708.4349365234376	-1170.430908203125	-261.1452026367188	707.4921875000001	-1161.5458984375	-344.1686706542969	661.4376220703126	-1152.812133789063	-359.6873168945313	501.4133300781251	-1115.492309570313	-322.7183532714844	502.8656005859376	-1001.263244628906	-324.8350830078126	363.6321411132813	-1035.890625	-349.4503173828126	304.8182067871094	-1096.977905273438	-318.9575500488282	311.1119689941407	-1061.42431640625	-330.4755249023438	237.2334289550782	-1021.661926269531	-387.1056213378907	107.6412200927735	-1057.923950195313	-356.5342102050782	125.6880569458008	-981.8829345703127	-443.0314025878907	97.60247039794925	-1008.52490234375	-241.7411041259766	53.6803436279297	-994.264587402344	-236.487289428711	49.335018157959	-1032.835571289063	-260.1238098144532	43.02127075195313	-1082.498168945313	-273.7770385742188	702.2072753906251	-820.6348876953127	-223.6897888183594	657.6014404296876	-812.1790161132815	-190.9905395507813	665.4792480468751	-821.3320922851565	-231.6112365722657	574.4857177734376	-819.207946777344	-222.5392303466797	520.8742065429689	-820.1541748046877	-191.9631805419922	503.694549560547	-930.369323730469	-214.1628417968751	382.1095581054688	-824.6511230468752	-307.1084899902344	328.4536132812501	-803.0512695312502	-263.3367614746094	311.9539184570313	-809.3360595703127	-262.1437377929688	261.6788635253907	-839.8272094726565	-364.7590332031251	146.1527557373047	-806.1904296875002	-333.2963867187501	150.7785034179688	-887.194763183594	-422.863739013672	133.123519897461	-852.0427246093752	-229.5144042968751	66.50186920166017	-866.121276855469	-221.027328491211	72.49853515625001	-821.509704589844	-254.1075286865235	61.70943069458009	-769.0717773437502	
